<svg xmlns="http://www.w3.org/2000/svg" id="Layer_1" data-name="Layer 1" viewBox="0 0 200 200"><defs><style>.cls-1{fill:#231f20;stroke:#fff;stroke-miterlimit:10;stroke-width:4.72px}.cls-2{fill:#ed1c24}.cls-3{fill:#fff}</style></defs><rect width="165" height="127.6" x="17.73" y="36.2" class="cls-1" rx="11.95"/><rect width="102.12" height="7.9" x="50.29" y="117.84" class="cls-2"/><path d="M80.1,91.72a24.56,24.56,0,0,1-1.73,10,11,11,0,0,1-5.2,5.53c-2.32,1.15-5.57,1.72-9.78,1.72H52.84V74.42H63.29A22.34,22.34,0,0,1,73,76.19a11.17,11.17,0,0,1,5.34,5.54A24.25,24.25,0,0,1,80.1,91.72Zm-7.28,0A18.71,18.71,0,0,0,71.93,85a5.59,5.59,0,0,0-3-3.14,16,16,0,0,0-6.3-.95h-2.7v21.7h2.7a15.89,15.89,0,0,0,6.29-1,5.69,5.69,0,0,0,3-3.21A19.13,19.13,0,0,0,72.82,91.67Z" class="cls-3"/><path d="M84.1,109l11.45-34.6h9.18L116.21,109H109l-2.3-7H93.35l-2.25,7Zm11.25-13.2h9.33L100,81.52Z" class="cls-3"/><path d="M150,91.72q0,9-3.81,13.53t-11.09,4.5q-7.68,0-11.29-4.74t-3.61-13.29q0-8.59,3.61-13.32t11.29-4.71q7.73,0,11.32,4.71T150,91.72Zm-7.27,0q0-6.15-1.74-9t-5.89-2.82q-4.15,0-5.89,2.82t-1.74,9q0,6.15,1.77,9c1.17,1.88,3.13,2.82,5.86,2.82s4.73-.94,5.89-2.82S142.7,95.82,142.7,91.72Z" class="cls-3"/></svg>